# xmcd
#
# Track frame offsets:
#	150
#	15455
#	35513
#	54051
#	70159
#	88392
#	106872
#	123375
#	139357
#	153088
#	171672
#	185626
#	198403
#	218426
#	242701
#	263727
#
# Disc length: 3818 seconds
#
# Revision: 0
# Processed by: cddbd v1.5.2PL0 Copyright (c) Steve Scherf et al.
# Submitted via: audiograbber 1.83.01
#
DISCID=dd0ee810
DTITLE=JonesTM - HC200741
DYEAR=2007
DGENRE=Country
TTITLE0=Hal Ketchum - One More Midnight
TTITLE1=Brad Paisley - Letter To Me [Radio Edit]
TTITLE2=Rascal Flatts - Winner At A Losing Game
TTITLE3=Eli Young Band - When It Rains [Single Edit]
TTITLE4=Flynnville Train - Tequila Sheila [Album Version]
TTITLE5=Cross Canadian Ragweed - I Believe You [Album Version]
TTITLE6=Cole Deggs and The Lonesome - Girl Next Door [Album Version]
TTITLE7=Lyfe Jennings - Cops Up [Clean Version]
TTITLE8=Lyfe Jennings - Cops Up [No Rap Version]
TTITLE9=Angie Stone Feat. Pauletta Washington - Happy Being Me [Radio Edit]
TTITLE10=Raul Midon - Pick Somebody Up [Album Version - Without Rap]
TTITLE11=Raul Midon - Pick Somebody Up [Radio Edit]
TTITLE12=Walter Beasley - Why Not You [Album Version]
TTITLE13=U-Nam - Keep The Faith [Album Version]
TTITLE14=Queen Latifah - Poetry Man
TTITLE15=Audio Caviar - Dominique
EXTD=
EXTT0=
EXTT1=
EXTT2=
EXTT3=
EXTT4=
EXTT5=
EXTT6=
EXTT7=
EXTT8=
EXTT9=
EXTT10=
EXTT11=
EXTT12=
EXTT13=
EXTT14=
EXTT15=
PLAYORDER=
